<svg id="visual" viewBox="0 0 900 450" width="900" height="450" xmlns="http://www.w3.org/2000/svg" xmlns:xlink="http://www.w3.org/1999/xlink" version="1.1"><rect x="0" y="0" width="900" height="450" fill="#ffffff"></rect><path d="M0 100L21.5 87.8C43 75.7 86 51.3 128.8 41.8C171.7 32.3 214.3 37.7 257.2 47.5C300 57.3 343 71.7 385.8 75.3C428.7 79 471.3 72 514.2 63.3C557 54.7 600 44.3 642.8 49.2C685.7 54 728.3 74 771.2 79.8C814 85.7 857 77.3 878.5 73.2L900 69L900 0L878.5 0C857 0 814 0 771.2 0C728.3 0 685.7 0 642.8 0C600 0 557 0 514.2 0C471.3 0 428.7 0 385.8 0C343 0 300 0 257.2 0C214.3 0 171.7 0 128.8 0C86 0 43 0 21.5 0L0 0Z" fill="#000000" stroke-linecap="round" stroke-linejoin="miter"></path></svg>